<svg version="1.1" id="Layer_1" xmlns="http://www.w3.org/2000/svg" xmlns:xlink="http://www.w3.org/1999/xlink" x="0px" y="0px"
	 width="100%" viewBox="0 0 1024 1024" enable-background="new 0 0 1024 1024" xml:space="preserve">
<path fill="#FFFFFF" opacity="1.000000" stroke="none" 
	d="
M576.000000,1025.000000 
	C384.000000,1025.000000 192.500000,1025.000000 1.000000,1025.000000 
	C1.000000,683.666687 1.000000,342.333344 1.000000,1.000000 
	C342.333344,1.000000 683.666687,1.000000 1025.000000,1.000000 
	C1025.000000,342.333344 1025.000000,683.666687 1025.000000,1025.000000 
	C875.500000,1025.000000 726.000000,1025.000000 576.000000,1025.000000 
M347.904724,741.810852 
	C347.169708,736.586365 346.399811,731.366577 345.706665,726.136536 
	C344.122650,714.184937 342.508698,702.236694 341.033325,690.271545 
	C339.536743,678.134521 338.269257,665.969177 336.759033,653.833984 
	C335.270630,641.874329 333.556335,629.943054 332.028992,617.988098 
	C330.563110,606.514465 329.263000,595.019531 327.792480,583.546509 
	C326.260834,571.596375 324.570984,559.666565 323.027039,547.717957 
	C321.545380,536.251343 320.197357,524.767395 318.726746,513.299316 
	C316.856506,498.714844 314.887421,484.143005 313.026276,469.557404 
	C311.562805,458.088257 310.231079,446.602325 308.781036,435.131439 
	C307.228210,422.847504 305.580414,410.575592 304.020599,398.292542 
	C302.606018,387.153442 301.330048,375.995605 299.750183,364.880493 
	C299.601288,363.832825 297.724335,362.249939 296.632355,362.235626 
	C282.835205,362.054993 269.034882,362.116913 254.765549,362.116913 
	C255.207047,365.602173 255.603867,368.671814 255.983566,371.743591 
	C257.443115,383.551544 258.870270,395.363525 260.360870,407.167572 
	C261.871124,419.127228 263.468933,431.075806 264.978729,443.035522 
	C266.427246,454.510071 267.741150,466.001953 269.242920,477.469391 
	C271.086609,491.547821 273.150757,505.597565 274.958984,519.680359 
	C276.788696,533.930359 278.329041,548.217590 280.165894,562.466614 
	C282.340515,579.335632 284.782715,596.170288 286.949982,613.040222 
	C289.097015,629.753296 290.952087,646.504028 293.108551,663.215820 
	C295.285614,680.087341 297.776703,696.918457 299.943665,713.791199 
	C302.110474,730.662781 303.932129,747.578857 306.113678,764.448425 
	C308.611542,783.764099 311.401520,803.041748 313.948914,822.351196 
	C316.367554,840.684692 318.450806,859.064026 321.023590,877.375183 
	C323.640930,896.003479 341.202850,911.010132 359.908813,911.011414 
	C462.073517,911.018555 564.238220,911.019836 666.402893,911.009644 
	C685.007690,911.007812 702.290283,896.190063 704.979797,877.738342 
	C706.575195,866.793518 707.776978,855.791565 709.182861,844.818726 
	C710.777832,832.370667 712.381653,819.923584 714.021667,807.481445 
	C715.531860,796.023804 717.126648,784.577454 718.626221,773.118469 
	C720.126221,761.655579 721.555786,750.183350 723.013367,738.714905 
	C724.470886,727.246033 725.897644,715.773132 727.387878,704.308533 
	C728.898560,692.686584 730.493896,681.075562 732.008728,669.454163 
	C733.481934,658.152039 734.879333,646.840088 736.348206,635.537354 
	C737.879944,623.751587 739.472595,611.973816 741.010437,600.188843 
	C742.505798,588.728821 743.954285,577.262756 745.443481,565.801941 
	C746.954163,554.175964 748.529602,542.558228 750.002869,530.927612 
	C751.477356,519.287231 752.796204,507.626953 754.300415,495.990570 
	C756.140869,481.752167 758.169556,467.538025 759.993958,453.297638 
	C761.798218,439.214691 763.369568,425.101837 765.188782,411.020905 
	C767.274475,394.876648 769.520508,378.753082 771.745178,362.262543 
	C757.089661,362.262543 742.957642,362.192413 728.830200,362.416779 
	C727.865173,362.432129 726.292053,364.559357 726.097168,365.867584 
	C725.099487,372.565308 724.526062,379.324677 723.682922,386.047302 
	C722.162292,398.170624 720.538452,410.280945 718.989746,422.400848 
	C717.523560,433.875031 716.110474,445.356049 714.652039,456.831238 
	C713.110291,468.961517 711.526245,481.086365 709.990723,493.217407 
	C708.538330,504.691772 707.147766,516.174011 705.688171,527.647400 
	C704.146301,539.766785 702.524414,551.875977 700.993835,563.996765 
	C699.544128,575.477234 698.208130,586.972046 696.747375,598.451050 
	C695.205811,610.564575 693.566711,622.665649 691.986877,634.774292 
	C690.447449,646.573669 688.907288,658.372986 687.407410,670.177429 
	C685.907593,681.980774 684.479797,693.793274 682.979065,705.596497 
	C681.457458,717.563538 679.871338,729.522461 678.338928,741.488159 
	C676.870972,752.950867 675.435120,764.417725 673.986145,775.882812 
	C672.433411,788.168762 670.872742,800.453674 669.332214,812.741150 
	C667.872253,824.386536 665.993835,836.000977 665.098694,847.690186 
	C664.008545,861.926575 656.505310,869.643982 642.403748,869.647034 
	C597.911377,869.656494 553.419006,869.624084 508.926636,869.629089 
	C467.265839,869.633850 425.604767,869.591248 383.944366,869.730408 
	C371.349396,869.772522 362.286346,862.464844 361.772369,851.334839 
	C361.628784,848.226196 360.739227,845.158936 360.334869,842.054077 
	C358.862091,830.744995 357.449097,819.428101 356.014984,808.113953 
	C354.457733,795.828125 352.869171,783.546265 351.356293,771.255066 
	C350.185669,761.744446 349.110535,752.222046 347.904724,741.810852 
M600.500000,285.985413 
	C475.181793,285.986206 349.863586,285.986725 224.545380,285.988342 
	C215.222961,285.988464 211.271820,289.756989 210.988998,299.006470 
	C210.627731,310.822052 210.599915,322.656250 209.890884,334.450073 
	C209.363281,343.226135 214.642807,346.118164 221.501892,346.092468 
	C263.496094,345.934906 305.491180,346.014923 347.485992,346.014801 
	C499.968475,346.014313 652.450928,346.014465 804.933411,346.010162 
	C813.806824,346.009918 816.358337,343.666901 816.194275,334.916473 
	C815.972839,323.104095 815.396240,311.298767 815.038208,299.488403 
	C814.737793,289.579681 811.167053,285.986511 801.475586,285.986725 
	C734.817078,285.988098 668.158508,285.986267 600.500000,285.985413 
M499.497345,223.986115 
	C433.170258,223.986725 366.843170,223.993088 300.516083,223.980103 
	C292.861938,223.978607 286.874146,226.877396 284.350525,234.373093 
	C280.405487,246.090851 276.946106,257.972137 273.283905,269.774628 
	C433.246033,269.774628 592.973083,269.774628 752.880676,269.774628 
	C749.558594,258.716705 746.359436,247.915161 743.063599,237.143219 
	C740.156128,227.640289 735.181885,223.987991 725.412292,223.987930 
	C672.083923,223.987610 618.755493,223.986755 565.427124,223.986084 
	C563.674500,223.986053 561.921936,223.986053 559.924988,223.986053 
	C565.400391,204.546036 570.597900,185.637314 576.098145,166.817078 
	C577.964600,160.430649 581.553955,155.617096 588.820679,153.861694 
	C623.811218,145.408966 658.727722,136.649857 693.672241,128.006195 
	C703.193848,125.650993 712.745605,123.412415 722.232605,120.925751 
	C725.557678,120.054192 728.611206,118.345650 727.577698,114.045784 
	C725.167786,104.019676 722.621948,94.025703 720.061096,84.036674 
	C719.136414,80.429611 717.328918,78.330391 712.989990,79.441734 
	C660.051147,93.001328 607.098633,106.507881 554.121948,119.918663 
	C547.710083,121.541771 543.773804,125.317337 542.014771,131.532501 
	C536.982605,149.311874 531.995605,167.104050 526.966553,184.884308 
	C523.283630,197.905243 519.562378,210.915314 515.842346,223.986160 
	C510.474945,223.986160 505.485107,223.986160 499.497345,223.986115 
M373.151917,571.452271 
	C379.378357,574.329407 385.420868,577.729126 391.862152,579.995789 
	C424.741241,591.565308 459.081146,594.731384 493.529175,595.766663 
	C515.592163,596.429688 537.792053,595.517639 559.809998,593.782349 
	C578.305603,592.324707 596.769470,589.371399 614.980835,585.742310 
	C629.877747,582.773621 644.478943,578.042114 657.078064,568.891418 
	C663.554382,564.187622 667.385681,558.417725 667.168274,549.709045 
	C666.682068,530.232117 667.019958,510.734833 667.002930,491.245850 
	C667.001709,489.885223 666.842651,488.524689 666.720093,486.577820 
	C658.585510,496.161499 648.289856,500.961731 637.627136,504.918518 
	C602.716553,517.873413 566.173523,521.730286 529.354004,522.770508 
	C509.951447,523.318726 490.417236,522.465576 471.070007,520.780579 
	C452.412842,519.155640 433.729034,516.557678 415.405579,512.721802 
	C395.069885,508.464600 375.141296,502.294922 359.007263,486.751160 
	C359.007263,506.885406 359.450134,526.467896 358.839172,546.017456 
	C358.479675,557.520142 363.391174,565.210205 373.151917,571.452271 
M600.466614,616.986145 
	C575.090698,622.152100 549.378784,624.344543 523.557068,624.900940 
	C492.674652,625.566528 461.903259,623.846008 431.495880,617.965698 
	C405.553436,612.948975 379.866943,607.191833 359.170044,588.436523 
	C359.170044,609.778870 359.070801,630.874756 359.234650,651.968506 
	C359.279816,657.787476 361.305359,663.361877 366.283691,666.618530 
	C374.198853,671.796265 382.135376,677.399719 390.849792,680.815430 
	C423.024841,693.426758 457.069611,696.416626 491.173065,697.813477 
	C509.268616,698.554626 527.446960,697.527405 545.580383,697.025757 
	C566.922241,696.435364 588.030151,693.613708 608.840027,688.934204 
	C624.832825,685.338074 640.543457,680.736450 654.435364,671.527954 
	C662.854614,665.947083 667.560486,658.762085 667.177856,647.964172 
	C666.564575,630.659180 667.012329,613.316650 667.011597,595.989990 
	C667.011536,593.763184 667.011597,591.536438 667.011597,588.605103 
	C659.109131,596.680115 650.360107,601.830566 640.662781,605.049377 
	C627.663757,609.364136 614.448303,613.026550 600.466614,616.986145 
M359.326050,755.848022 
	C359.861603,761.425659 362.269379,766.358032 366.882538,769.194031 
	C375.070129,774.227356 383.352325,779.545044 392.297760,782.829590 
	C426.459015,795.372803 462.396790,798.297913 498.320465,799.800659 
	C534.823914,801.327637 571.195251,798.760010 607.010803,790.957031 
	C623.806458,787.297852 640.346313,782.638062 654.859985,772.911621 
	C660.839233,768.904602 666.747375,764.110718 666.873901,756.252380 
	C667.226807,734.336365 666.996521,712.410950 666.996521,689.598572 
	C657.331970,700.195251 645.456421,705.586304 633.096680,709.948914 
	C597.837585,722.394287 561.106689,725.979309 524.087402,726.806519 
	C507.334900,727.180786 490.540527,725.686768 473.765350,725.035889 
	C453.441437,724.247253 433.464172,720.982300 413.820160,715.914612 
	C394.139832,710.837524 374.869995,704.635010 359.210236,689.918640 
	C359.210236,711.843201 359.210236,733.403442 359.326050,755.848022 
M426.451965,419.983948 
	C419.865173,421.321716 413.170074,422.272034 406.713745,424.076538 
	C392.513458,428.045502 378.232300,431.899597 366.418518,441.538513 
	C356.857880,449.339020 357.045532,459.645630 367.026825,467.031281 
	C378.326111,475.392151 391.435608,479.547699 404.749634,482.936523 
	C437.780731,491.344086 471.585602,493.917175 505.491791,494.721008 
	C521.260437,495.094879 537.073181,493.711700 552.863098,493.056396 
	C575.003296,492.137543 596.861755,488.935364 618.397766,483.895782 
	C632.078796,480.694275 645.705750,476.827972 657.415283,468.548553 
	C668.618774,460.626984 671.521179,450.917450 659.564636,441.199402 
	C655.527832,437.918396 650.894653,435.146851 646.144348,433.007538 
	C627.451538,424.589050 607.587830,420.245789 587.345276,418.102997 
	C566.265625,415.871582 545.092102,413.528687 523.935852,413.283539 
	C499.881409,413.004822 475.786774,414.752686 451.739105,416.133728 
	C443.555847,416.603668 435.462189,418.633698 426.451965,419.983948 
z"/>
<path fill="#080808" opacity="1.000000" stroke="none" 
	d="
M347.948853,742.257874 
	C349.110535,752.222046 350.185669,761.744446 351.356293,771.255066 
	C352.869171,783.546265 354.457733,795.828125 356.014984,808.113953 
	C357.449097,819.428101 358.862091,830.744995 360.334869,842.054077 
	C360.739227,845.158936 361.628784,848.226196 361.772369,851.334839 
	C362.286346,862.464844 371.349396,869.772522 383.944366,869.730408 
	C425.604767,869.591248 467.265839,869.633850 508.926636,869.629089 
	C553.419006,869.624084 597.911377,869.656494 642.403748,869.647034 
	C656.505310,869.643982 664.008545,861.926575 665.098694,847.690186 
	C665.993835,836.000977 667.872253,824.386536 669.332214,812.741150 
	C670.872742,800.453674 672.433411,788.168762 673.986145,775.882812 
	C675.435120,764.417725 676.870972,752.950867 678.338928,741.488159 
	C679.871338,729.522461 681.457458,717.563538 682.979065,705.596497 
	C684.479797,693.793274 685.907593,681.980774 687.407410,670.177429 
	C688.907288,658.372986 690.447449,646.573669 691.986877,634.774292 
	C693.566711,622.665649 695.205811,610.564575 696.747375,598.451050 
	C698.208130,586.972046 699.544128,575.477234 700.993835,563.996765 
	C702.524414,551.875977 704.146301,539.766785 705.688171,527.647400 
	C707.147766,516.174011 708.538330,504.691772 709.990723,493.217407 
	C711.526245,481.086365 713.110291,468.961517 714.652039,456.831238 
	C716.110474,445.356049 717.523560,433.875031 718.989746,422.400848 
	C720.538452,410.280945 722.162292,398.170624 723.682922,386.047302 
	C724.526062,379.324677 725.099487,372.565308 726.097168,365.867584 
	C726.292053,364.559357 727.865173,362.432129 728.830200,362.416779 
	C742.957642,362.192413 757.089661,362.262543 771.745178,362.262543 
	C769.520508,378.753082 767.274475,394.876648 765.188782,411.020905 
	C763.369568,425.101837 761.798218,439.214691 759.993958,453.297638 
	C758.169556,467.538025 756.140869,481.752167 754.300415,495.990570 
	C752.796204,507.626953 751.477356,519.287231 750.002869,530.927612 
	C748.529602,542.558228 746.954163,554.175964 745.443481,565.801941 
	C743.954285,577.262756 742.505798,588.728821 741.010437,600.188843 
	C739.472595,611.973816 737.879944,623.751587 736.348206,635.537354 
	C734.879333,646.840088 733.481934,658.152039 732.008728,669.454163 
	C730.493896,681.075562 728.898560,692.686584 727.387878,704.308533 
	C725.897644,715.773132 724.470886,727.246033 723.013367,738.714905 
	C721.555786,750.183350 720.126221,761.655579 718.626221,773.118469 
	C717.126648,784.577454 715.531860,796.023804 714.021667,807.481445 
	C712.381653,819.923584 710.777832,832.370667 709.182861,844.818726 
	C707.776978,855.791565 706.575195,866.793518 704.979797,877.738342 
	C702.290283,896.190063 685.007690,911.007812 666.402893,911.009644 
	C564.238220,911.019836 462.073517,911.018555 359.908813,911.011414 
	C341.202850,911.010132 323.640930,896.003479 321.023590,877.375183 
	C318.450806,859.064026 316.367554,840.684692 313.948914,822.351196 
	C311.401520,803.041748 308.611542,783.764099 306.113678,764.448425 
	C303.932129,747.578857 302.110474,730.662781 299.943665,713.791199 
	C297.776703,696.918457 295.285614,680.087341 293.108551,663.215820 
	C290.952087,646.504028 289.097015,629.753296 286.949982,613.040222 
	C284.782715,596.170288 282.340515,579.335632 280.165894,562.466614 
	C278.329041,548.217590 276.788696,533.930359 274.958984,519.680359 
	C273.150757,505.597565 271.086609,491.547821 269.242920,477.469391 
	C267.741150,466.001953 266.427246,454.510071 264.978729,443.035522 
	C263.468933,431.075806 261.871124,419.127228 260.360870,407.167572 
	C258.870270,395.363525 257.443115,383.551544 255.983566,371.743591 
	C255.603867,368.671814 255.207047,365.602173 254.765549,362.116913 
	C269.034882,362.116913 282.835205,362.054993 296.632355,362.235626 
	C297.724335,362.249939 299.601288,363.832825 299.750183,364.880493 
	C301.330048,375.995605 302.606018,387.153442 304.020599,398.292542 
	C305.580414,410.575592 307.228210,422.847504 308.781036,435.131439 
	C310.231079,446.602325 311.562805,458.088257 313.026276,469.557404 
	C314.887421,484.143005 316.856506,498.714844 318.726746,513.299316 
	C320.197357,524.767395 321.545380,536.251343 323.027039,547.717957 
	C324.570984,559.666565 326.260834,571.596375 327.792480,583.546509 
	C329.263000,595.019531 330.563110,606.514465 332.028992,617.988098 
	C333.556335,629.943054 335.270630,641.874329 336.759033,653.833984 
	C338.269257,665.969177 339.536743,678.134521 341.033325,690.271545 
	C342.508698,702.236694 344.122650,714.184937 345.706665,726.136536 
	C346.399811,731.366577 347.169708,736.586365 347.948853,742.257874 
z"/>
<path fill="#080808" opacity="1.000000" stroke="none" 
	d="
M601.000000,285.985443 
	C668.158508,285.986267 734.817078,285.988098 801.475586,285.986725 
	C811.167053,285.986511 814.737793,289.579681 815.038208,299.488403 
	C815.396240,311.298767 815.972839,323.104095 816.194275,334.916473 
	C816.358337,343.666901 813.806824,346.009918 804.933411,346.010162 
	C652.450928,346.014465 499.968475,346.014313 347.485992,346.014801 
	C305.491180,346.014923 263.496094,345.934906 221.501892,346.092468 
	C214.642807,346.118164 209.363281,343.226135 209.890884,334.450073 
	C210.599915,322.656250 210.627731,310.822052 210.988998,299.006470 
	C211.271820,289.756989 215.222961,285.988464 224.545380,285.988342 
	C349.863586,285.986725 475.181793,285.986206 601.000000,285.985443 
z"/>
<path fill="#080808" opacity="1.000000" stroke="none" 
	d="
M499.996277,223.986145 
	C505.485107,223.986160 510.474945,223.986160 515.842346,223.986160 
	C519.562378,210.915314 523.283630,197.905243 526.966553,184.884308 
	C531.995605,167.104050 536.982605,149.311874 542.014771,131.532501 
	C543.773804,125.317337 547.710083,121.541771 554.121948,119.918663 
	C607.098633,106.507881 660.051147,93.001328 712.989990,79.441734 
	C717.328918,78.330391 719.136414,80.429611 720.061096,84.036674 
	C722.621948,94.025703 725.167786,104.019676 727.577698,114.045784 
	C728.611206,118.345650 725.557678,120.054192 722.232605,120.925751 
	C712.745605,123.412415 703.193848,125.650993 693.672241,128.006195 
	C658.727722,136.649857 623.811218,145.408966 588.820679,153.861694 
	C581.553955,155.617096 577.964600,160.430649 576.098145,166.817078 
	C570.597900,185.637314 565.400391,204.546036 559.924988,223.986053 
	C561.921936,223.986053 563.674500,223.986053 565.427124,223.986084 
	C618.755493,223.986755 672.083923,223.987610 725.412292,223.987930 
	C735.181885,223.987991 740.156128,227.640289 743.063599,237.143219 
	C746.359436,247.915161 749.558594,258.716705 752.880676,269.774628 
	C592.973083,269.774628 433.246033,269.774628 273.283905,269.774628 
	C276.946106,257.972137 280.405487,246.090851 284.350525,234.373093 
	C286.874146,226.877396 292.861938,223.978607 300.516083,223.980103 
	C366.843170,223.993088 433.170258,223.986725 499.996277,223.986145 
z"/>
<path fill="#080808" opacity="1.000000" stroke="none" 
	d="
M372.850769,571.241943 
	C363.391174,565.210205 358.479675,557.520142 358.839172,546.017456 
	C359.450134,526.467896 359.007263,506.885406 359.007263,486.751160 
	C375.141296,502.294922 395.069885,508.464600 415.405579,512.721802 
	C433.729034,516.557678 452.412842,519.155640 471.070007,520.780579 
	C490.417236,522.465576 509.951447,523.318726 529.354004,522.770508 
	C566.173523,521.730286 602.716553,517.873413 637.627136,504.918518 
	C648.289856,500.961731 658.585510,496.161499 666.720093,486.577820 
	C666.842651,488.524689 667.001709,489.885223 667.002930,491.245850 
	C667.019958,510.734833 666.682068,530.232117 667.168274,549.709045 
	C667.385681,558.417725 663.554382,564.187622 657.078064,568.891418 
	C644.478943,578.042114 629.877747,582.773621 614.980835,585.742310 
	C596.769470,589.371399 578.305603,592.324707 559.809998,593.782349 
	C537.792053,595.517639 515.592163,596.429688 493.529175,595.766663 
	C459.081146,594.731384 424.741241,591.565308 391.862152,579.995789 
	C385.420868,577.729126 379.378357,574.329407 372.850769,571.241943 
z"/>
<path fill="#080808" opacity="1.000000" stroke="none" 
	d="
M600.896179,616.977661 
	C614.448303,613.026550 627.663757,609.364136 640.662781,605.049377 
	C650.360107,601.830566 659.109131,596.680115 667.011597,588.605103 
	C667.011597,591.536438 667.011536,593.763184 667.011597,595.989990 
	C667.012329,613.316650 666.564575,630.659180 667.177856,647.964172 
	C667.560486,658.762085 662.854614,665.947083 654.435364,671.527954 
	C640.543457,680.736450 624.832825,685.338074 608.840027,688.934204 
	C588.030151,693.613708 566.922241,696.435364 545.580383,697.025757 
	C527.446960,697.527405 509.268616,698.554626 491.173065,697.813477 
	C457.069611,696.416626 423.024841,693.426758 390.849792,680.815430 
	C382.135376,677.399719 374.198853,671.796265 366.283691,666.618530 
	C361.305359,663.361877 359.279816,657.787476 359.234650,651.968506 
	C359.070801,630.874756 359.170044,609.778870 359.170044,588.436523 
	C379.866943,607.191833 405.553436,612.948975 431.495880,617.965698 
	C461.903259,623.846008 492.674652,625.566528 523.557068,624.900940 
	C549.378784,624.344543 575.090698,622.152100 600.896179,616.977661 
z"/>
<path fill="#080808" opacity="1.000000" stroke="none" 
	d="
M359.268127,755.405884 
	C359.210236,733.403442 359.210236,711.843201 359.210236,689.918640 
	C374.869995,704.635010 394.139832,710.837524 413.820160,715.914612 
	C433.464172,720.982300 453.441437,724.247253 473.765350,725.035889 
	C490.540527,725.686768 507.334900,727.180786 524.087402,726.806519 
	C561.106689,725.979309 597.837585,722.394287 633.096680,709.948914 
	C645.456421,705.586304 657.331970,700.195251 666.996521,689.598572 
	C666.996521,712.410950 667.226807,734.336365 666.873901,756.252380 
	C666.747375,764.110718 660.839233,768.904602 654.859985,772.911621 
	C640.346313,782.638062 623.806458,787.297852 607.010803,790.957031 
	C571.195251,798.760010 534.823914,801.327637 498.320465,799.800659 
	C462.396790,798.297913 426.459015,795.372803 392.297760,782.829590 
	C383.352325,779.545044 375.070129,774.227356 366.882538,769.194031 
	C362.269379,766.358032 359.861603,761.425659 359.268127,755.405884 
z"/>
<path fill="#080808" opacity="1.000000" stroke="none" 
	d="
M426.889771,419.967407 
	C435.462189,418.633698 443.555847,416.603668 451.739105,416.133728 
	C475.786774,414.752686 499.881409,413.004822 523.935852,413.283539 
	C545.092102,413.528687 566.265625,415.871582 587.345276,418.102997 
	C607.587830,420.245789 627.451538,424.589050 646.144348,433.007538 
	C650.894653,435.146851 655.527832,437.918396 659.564636,441.199402 
	C671.521179,450.917450 668.618774,460.626984 657.415283,468.548553 
	C645.705750,476.827972 632.078796,480.694275 618.397766,483.895782 
	C596.861755,488.935364 575.003296,492.137543 552.863098,493.056396 
	C537.073181,493.711700 521.260437,495.094879 505.491791,494.721008 
	C471.585602,493.917175 437.780731,491.344086 404.749634,482.936523 
	C391.435608,479.547699 378.326111,475.392151 367.026825,467.031281 
	C357.045532,459.645630 356.857880,449.339020 366.418518,441.538513 
	C378.232300,431.899597 392.513458,428.045502 406.713745,424.076538 
	C413.170074,422.272034 419.865173,421.321716 426.889771,419.967407 
z"/>
</svg>