<?xml version="1.0" encoding="UTF-8" standalone="no" ?>
<!DOCTYPE svg PUBLIC "-//W3C//DTD SVG 1.1//EN" "http://www.w3.org/Graphics/SVG/1.1/DTD/svg11.dtd">
<svg xmlns="http://www.w3.org/2000/svg" xmlns:xlink="http://www.w3.org/1999/xlink" version="1.1" width="1080" height="1080" viewBox="0 0 1080 1080" xml:space="preserve">
<desc>Created with Fabric.js 5.2.4</desc>
<defs>
</defs>
<g transform="matrix(1 0 0 1 540 540)" id="4c308d8d-8228-4fa5-87f8-839ab5b34d1a"  >
</g>
<g transform="matrix(1 0 0 1 540 540)" id="a4b3b0c2-f9d5-4d2f-8733-6386f6ed9967"  >
<rect style="stroke: none; stroke-width: 1; stroke-dasharray: none; stroke-linecap: butt; stroke-dashoffset: 0; stroke-linejoin: miter; stroke-miterlimit: 4; fill: rgb(255,255,255); fill-rule: nonzero; opacity: 1; visibility: hidden;" vector-effect="non-scaling-stroke"  x="-540" y="-540" rx="0" ry="0" width="1080" height="1080" />
</g>
<g transform="matrix(15.27 0 0 15.27 543.82 538.12)" id="9f262e9f-989d-45be-85b1-9c10ad048eb4"  >
<circle style="stroke: rgb(0,0,0); stroke-width: 0; stroke-dasharray: none; stroke-linecap: butt; stroke-dashoffset: 0; stroke-linejoin: miter; stroke-miterlimit: 4; fill: rgb(255,255,255); fill-rule: nonzero; opacity: 1;" vector-effect="non-scaling-stroke"  cx="0" cy="0" r="35" />
</g>
<g transform="matrix(1 0 0 1 540 540)"  >
<g style="" vector-effect="non-scaling-stroke"   >
		<g transform="matrix(1 0 0 1 -109.07 38.1)"  >
<path style="stroke: none; stroke-width: 1; stroke-dasharray: none; stroke-linecap: butt; stroke-dashoffset: 0; stroke-linejoin: miter; stroke-miterlimit: 4; fill: rgb(0,0,0); fill-rule: nonzero; opacity: 1;" vector-effect="non-scaling-stroke"  transform=" translate(-410.43, -534.96)" d="M 217.629288 480.217041 C 211.138016 478.218658 208.540344 474.061737 208.61055 467.720245 C 208.765518 453.723236 208.648102 439.723328 208.675781 425.72467 C 208.691101 417.972046 212.824432 413.826599 220.68132 413.683746 C 224.679718 413.611053 228.723404 413.290588 232.669693 413.747101 C 238.305573 414.399048 240.606277 412.067474 241.797501 406.682281 C 243.949677 396.953003 246.811707 387.378723 249.448959 377.759369 C 251.280197 371.079926 254.380386 368.684784 261.245453 368.674164 C 284.243256 368.638611 307.24118 368.677216 330.238953 368.633881 C 337.699432 368.619812 337.989227 368.222961 336.811798 360.983032 C 332.095062 331.980286 327.294037 302.990845 322.727173 273.9646 C 322.085846 269.888336 319.242004 268.562103 316.369781 266.97818 C 291.136383 253.062958 265.879547 239.190201 240.642059 225.282242 C 238.032349 223.844055 235.234085 222.552811 234.684952 219.065948 C 234.004501 214.745331 240.301132 203.040894 244.257645 201.292877 C 246.626526 200.246277 248.802368 200.716995 250.937607 201.909866 C 278.565155 217.344223 306.198975 232.767349 333.817139 248.218506 C 344.141266 253.994415 346.735229 263.894501 348.334625 274.634857 C 351.877991 298.430115 355.814911 322.16687 359.609741 345.92453 C 360.473297 351.330688 361.700287 356.696747 362.231049 362.132874 C 362.714813 367.087738 364.75412 368.77533 369.870178 368.761841 C 431.864014 368.598389 493.858398 368.656586 555.852661 368.6633 C 566.102783 368.664429 568.821289 370.956146 571.354919 380.996155 C 573.793274 390.658539 576.581238 400.232971 578.989685 409.902344 C 579.685425 412.69574 580.972595 413.75946 583.792908 413.684021 C 588.9552 413.545898 594.124756 413.60672 599.290161 413.672333 C 607.03125 413.77066 611.809265 417.786621 611.992188 425.424072 C 612.339233 439.914032 612.316223 454.420044 612.084534 468.913574 C 611.973694 475.845123 606.998413 480.200653 600.107849 480.344757 C 587.772461 480.602722 587.814697 480.607697 586.396362 492.669556 C 582.771423 523.496033 579.060303 554.312317 575.469971 585.142822 C 572.666016 609.220703 570.077148 633.323853 567.236389 657.397339 C 564.065552 684.268066 560.62207 711.106812 557.473389 737.980103 C 553.957275 767.989685 550.629333 798.021301 547.240845 828.045715 C 546.198425 837.281799 545.205017 846.523499 544.228088 855.766785 C 543.358826 863.990967 539.996948 867.742249 531.672974 868.562927 C 520.38269 869.675964 509.030457 869.011475 497.707794 869.014648 C 440.049683 869.030945 382.39151 868.961853 324.73349 868.858337 C 312.922302 868.837158 301.110229 868.602783 289.301056 868.350159 C 281.496704 868.183289 277.382202 863.656311 276.614105 855.877563 C 274.933655 838.859863 272.904999 821.876343 270.985413 804.882629 C 269.232483 789.364197 267.469818 773.846863 265.648895 758.336304 C 263.847961 742.996277 261.944855 727.668152 260.130554 712.329651 C 258.277374 696.66272 256.478241 680.989502 254.654495 665.319092 C 252.791916 649.315002 250.906616 633.313477 249.07106 617.306274 C 247.235962 601.303162 245.507187 585.287598 243.628525 569.289673 C 241.188156 548.508301 238.650208 527.738281 236.14473 506.964539 C 235.329086 500.201782 234.285248 493.459106 233.722656 486.675964 C 233.359268 482.294891 232.009888 479.776855 227.054764 480.290192 C 224.089737 480.597382 221.062027 480.299377 217.629288 480.217041 M 542.584045 679.178406 C 542.673279 677.34845 542.660461 675.506958 542.867432 673.690369 C 545.122864 653.891846 547.493896 634.105835 549.59967 614.291565 C 549.893311 611.528992 552.536743 607.847046 549.306885 605.970825 C 546.325134 604.238708 543.514343 607.533325 540.796265 608.889832 C 518.267761 620.132019 494.496033 626.418579 469.285706 626.779663 C 449.082336 627.069153 429.684296 622.670044 410.70813 616.066223 C 408.456116 615.282532 406.262054 613.889282 403.475708 614.506165 C 403.475708 616.206787 403.272797 617.717773 403.505829 619.158203 C 407.666626 644.876587 411.87854 670.586792 416.083893 696.297974 C 417.043762 702.166687 412.871948 707.193909 406.157776 708.239563 C 398.373108 709.451965 392.68985 706.359131 391.71817 700.303406 C 386.668274 668.830444 381.635468 637.354675 376.61441 605.877075 C 376.140289 602.904663 375.053284 600.771545 371.829987 599.642578 C 365.235992 597.332825 358.724854 594.741455 352.320648 591.943237 C 328.42334 581.50177 303.595123 576.300049 277.456421 578.366211 C 265.979034 579.273499 266.352661 580.189514 268.141968 588.980103 C 268.470764 590.59552 268.271729 592.310669 268.466064 593.962219 C 272.054962 624.460144 275.733093 654.947754 279.252625 685.453735 C 282.088165 710.030945 284.635193 734.641663 287.497498 759.215637 C 290.647217 786.25769 294.259094 813.248901 297.073456 840.32428 C 297.640442 845.778992 299.348785 846.829407 304.248779 846.821106 C 366.246582 846.715881 428.24469 846.777893 490.242706 846.808228 C 499.742096 846.812866 509.241577 846.854736 518.740784 846.917786 C 521.283508 846.934631 523.330322 846.636963 523.645752 843.383301 C 524.574829 833.798157 525.615784 824.223083 526.68988 814.652771 C 528.43103 799.139465 530.212646 783.630615 532.015686 768.12439 C 533.875854 752.126892 535.773071 736.133667 537.670776 720.140503 C 539.255798 706.783142 540.865051 693.428589 542.584045 679.178406 M 390.004578 535.801941 C 392.513702 551.868164 395.020813 567.934692 397.533783 584.000305 C 397.987244 586.899231 399.554138 588.672424 402.447479 589.60437 C 406.878723 591.031677 411.209564 592.773682 415.571259 594.413452 C 436.631836 602.330566 458.040314 607.285278 480.884735 604.841492 C 506.50116 602.101196 529.618286 593.367676 550.572083 578.560547 C 552.550598 577.162415 554.220703 575.638 554.504761 573.086853 C 556.231628 557.578491 557.945984 542.068787 559.670044 526.56012 C 561.101013 513.687561 562.381653 500.795532 564.0354 487.951599 C 564.99176 480.523346 565.110718 480.354492 557.524109 480.352661 C 520.866516 480.343872 484.208954 480.347076 447.551361 480.348602 C 427.889557 480.349426 408.227661 480.325775 388.565979 480.376709 C 382.392212 480.3927 381.478882 481.215179 382.299042 486.775482 C 384.671112 502.856079 387.24765 518.906555 390.004578 535.801941 M 276.499939 458.653137 C 352.298431 458.653137 428.096893 458.653259 503.895386 458.653015 C 530.216614 458.652924 556.537781 458.658539 582.859009 458.646698 C 589.637451 458.643646 589.639587 458.617859 589.649475 451.670837 C 589.654236 448.33905 589.334778 444.970306 589.720825 441.683929 C 590.329468 436.50177 588.256042 435.297882 583.26825 435.303741 C 468.154877 435.439514 353.041321 435.409027 237.927811 435.410278 C 236.761719 435.410309 235.592819 435.476624 234.430084 435.416992 C 231.491302 435.266388 230.209335 436.502747 230.31929 439.555878 C 230.48703 444.214447 230.572342 448.894775 230.310547 453.544342 C 230.086655 457.520447 231.637848 458.76059 235.519196 458.710968 C 248.844177 458.540527 262.172729 458.650024 276.499939 458.653137 M 363.756866 529.413147 C 361.405426 515.012451 358.897614 500.63446 356.798065 486.197144 C 356.169861 481.877441 354.565552 480.218262 350.115204 480.270966 C 333.465637 480.468201 316.812347 480.351501 300.160431 480.35083 C 287.005432 480.350311 273.849792 480.417084 260.695801 480.300934 C 256.971191 480.268036 255.153336 480.932709 256.016479 485.39267 C 257.179993 491.404724 257.575592 497.565918 258.288452 503.664551 C 260.310455 520.963562 262.366638 538.258789 264.303467 555.567383 C 264.616486 558.364685 265.862579 558.640015 268.327148 558.295715 C 273.582367 557.561523 278.877838 556.97583 284.175873 556.712219 C 305.907013 555.63092 326.823914 559.632874 347.243713 566.889832 C 354.998657 569.645813 362.451813 573.298645 371.428986 575.540894 C 368.839569 559.990784 366.365906 545.135986 363.756866 529.413147 M 275.776978 390.295288 C 273.252045 390.538635 269.864685 389.272156 268.800446 392.621796 C 266.710236 399.200562 264.412781 405.78479 263.76709 413.05365 C 361.366943 413.05365 458.435883 413.05365 555.639587 413.05365 C 555.903015 406.978943 553.041565 402.18219 552.316528 396.964417 C 551.57843 391.65332 548.874573 390.161255 543.525024 390.171783 C 454.58725 390.347046 365.649048 390.299316 275.776978 390.295288 z" stroke-linecap="round" />
</g>
		<g transform="matrix(1 0 0 1 96.48 -114.93)"  >
<path style="stroke: none; stroke-width: 1; stroke-dasharray: none; stroke-linecap: butt; stroke-dashoffset: 0; stroke-linejoin: miter; stroke-miterlimit: 4; fill: rgb(0,0,0); fill-rule: nonzero; opacity: 1;" vector-effect="non-scaling-stroke"  transform=" translate(-615.98, -381.93)" d="M 790.347046 587.309448 C 794.042969 584.699829 797.532959 582.415894 800.797607 579.845825 C 807.21698 574.792175 810.126648 568.359558 810.036804 559.902832 C 809.762146 534.080444 811.151978 508.261444 810.590576 482.430054 C 810.537781 480.00116 810.979492 477.450714 809.004578 474.917877 C 799.87677 481.112885 790.217407 486.214142 780.012512 490.281555 C 759.039429 498.640839 737.135986 503.438873 714.979675 507.159393 C 683.734558 512.406067 652.230042 514.552185 620.559387 514.314514 C 613.266479 514.259766 609.958252 511.084473 609.745483 504.176819 C 609.56134 498.198944 612.687378 494.75766 618.697083 494.685272 C 627.528687 494.578857 636.374023 494.94986 645.193542 494.606262 C 685.192444 493.047974 724.706482 488.33606 762.919128 475.64563 C 776.141052 471.254608 788.366211 465.009155 799.359985 456.339691 C 807.115845 450.223572 810.93634 442.562225 810.703674 432.598389 C 810.271912 414.111847 811.074951 395.614471 810.174194 377.121368 C 809.850952 370.485138 810.465515 363.805267 810.586487 357.144135 C 810.62207 355.182068 810.9328 353.122955 809.614136 351.444031 C 808.691467 350.934753 807.912476 351.213623 807.226318 351.709015 C 787.341248 366.065552 764.369324 372.73587 740.962341 378.303406 C 714.539734 384.588196 687.803894 388.433319 660.619995 389.491272 C 641.325012 390.242188 622.064758 391.461029 602.740173 390.408325 C 594.748474 389.972961 592.250854 387.456482 592.637573 379.139526 C 592.920715 373.050659 596.565735 370.360626 603.676086 370.913025 C 624.825989 372.556244 645.915344 371.211945 667.020691 369.801392 C 690.607056 368.225037 713.981018 365.236725 736.951843 359.639282 C 757.540039 354.622375 777.876526 348.782288 795.328796 335.990417 C 798.539246 333.637299 801.583862 331.001129 804.414124 328.201508 C 807.566528 325.08313 809.644714 321.212433 809.657898 316.665588 C 809.736145 289.667725 809.72644 262.669586 809.728271 235.671555 C 809.728333 234.872635 809.529175 234.073715 809.428955 233.320496 C 808.906738 233.230698 808.482544 233.017197 808.29895 233.146194 C 785.596863 249.092468 759.506531 256.292725 732.998657 262.504303 C 710.285278 267.826691 687.186584 270.240387 664.025085 272.47702 C 639.920715 274.804718 615.769531 274.889923 591.64325 274.183807 C 545.53772 272.834351 500.334412 265.758362 456.587128 250.655045 C 446.320038 247.110413 436.537506 242.524307 427.62149 236.218903 C 426.315338 235.295212 425.114899 233.94545 423.138306 234.286194 C 421.721313 235.826172 422.363678 237.750549 422.360565 239.488861 C 422.318115 263.154327 422.54837 286.822754 422.230408 310.483978 C 422.114105 319.137421 424.960144 326.101837 431.067657 331.876343 C 434.438995 335.063873 435.639709 338.339874 432.674744 342.379852 C 429.497131 346.709503 423.245178 348.864288 419.497131 346.279297 C 409.697296 339.520233 403.020721 330.342377 402.784882 318.191467 C 402.319244 294.201233 402.706207 270.19577 402.554657 246.197739 C 402.468384 232.53949 402.351166 218.866104 401.644653 205.230789 C 400.66864 186.39418 409.244995 173.058807 424.458344 163.161453 C 442.005402 151.745865 461.596313 145.326035 481.596405 140.013763 C 504.443726 133.945236 527.759216 130.225998 551.230652 127.87088 C 578.236816 125.161095 605.370605 123.819229 632.516846 124.870064 C 669.577026 126.304657 706.541565 128.914597 742.766174 137.679138 C 762.068787 142.34938 780.982361 148.197098 798.49585 157.753998 C 810.789612 164.462509 821.971741 172.499054 827.385986 186.282364 C 829.164185 190.809311 830.34906 195.446579 830.328979 200.342957 C 830.211548 229.007187 830.548279 257.68277 829.832642 286.332092 C 829.258118 309.330078 828.983765 332.330048 829.553833 355.300079 C 830.265198 383.961121 830.725708 412.627563 830.102173 441.267395 C 829.202515 482.588806 829.705627 523.906311 829.250244 565.221497 C 829.093994 579.401245 820.555176 589.256897 809.995422 597.527161 C 791.188477 612.25647 768.999023 619.457092 746.32843 625.118591 C 720.687744 631.52179 694.69928 635.907349 668.210449 637.540466 C 646.248779 638.894592 624.306885 639.484192 602.325806 639.320007 C 593.477112 639.253967 589.455383 634.061951 591.888 625.491516 C 593.146606 621.057312 596.702515 619.583252 601.202332 619.614136 C 615.36731 619.711365 629.547974 620.057922 643.69635 619.562134 C 686.426819 618.064819 728.436584 612.184875 768.916992 597.678162 C 776.317871 595.026062 783.266235 591.452393 790.347046 587.309448 M 756.118164 236.567703 C 758.011536 235.930634 759.913147 235.317139 761.796875 234.652802 C 776.351379 229.519882 790.300354 223.194061 801.60144 212.367035 C 812.684265 201.7491 812.313782 193.94693 800.770203 183.969772 C 792.070496 176.450577 781.927307 171.415436 771.286011 167.422562 C 732.398071 152.830933 691.722107 147.277222 650.6026 145.624115 C 614.362305 144.167145 578.048767 144.294327 541.918091 149.180984 C 517.4953 152.484161 493.27359 156.529495 469.855988 164.404129 C 456.256226 168.97731 442.818787 174.045349 431.543701 183.313766 C 420.088318 192.730423 419.706512 201.275391 430.109436 211.843643 C 439.575226 221.45993 451.457703 227.167419 463.828522 231.780731 C 503.985535 246.75592 545.952576 252.615662 588.422119 254.421402 C 618.164612 255.685989 647.98053 255.160324 677.702148 251.844238 C 704.02832 248.906982 730.035828 244.73703 756.118164 236.567703 z" stroke-linecap="round" />
</g>
		<g transform="matrix(1 0 0 1 245.89 -186.23)"  >
<path style="stroke: none; stroke-width: 1; stroke-dasharray: none; stroke-linecap: butt; stroke-dashoffset: 0; stroke-linejoin: miter; stroke-miterlimit: 4; fill: rgb(0,0,0); fill-rule: nonzero; opacity: 1;" vector-effect="non-scaling-stroke"  transform=" translate(-765.39, -310.63)" d="M 777.269348 296.750305 C 783.809326 296.81543 786.595276 298.809204 787.920471 304.017761 C 789.0578 308.488342 787.029785 312.198425 781.93689 314.726166 C 773.257507 319.033905 764.070862 321.932526 754.675598 324.146606 C 748.776428 325.536835 744.584656 322.853882 743.002686 317.07074 C 741.475647 311.488007 743.952942 306.658569 749.737549 305.184631 C 758.924133 302.843842 767.846436 299.713837 777.269348 296.750305 z" stroke-linecap="round" />
</g>
		<g transform="matrix(1 0 0 1 245.92 61.21)"  >
<path style="stroke: none; stroke-width: 1; stroke-dasharray: none; stroke-linecap: butt; stroke-dashoffset: 0; stroke-linejoin: miter; stroke-miterlimit: 4; fill: rgb(0,0,0); fill-rule: nonzero; opacity: 1;" vector-effect="non-scaling-stroke"  transform=" translate(-765.42, -558.07)" d="M 760.858887 570.154907 C 758.674622 570.642151 756.893311 571.04718 755.108154 571.434204 C 748.657715 572.832275 744.674927 570.336853 743.016724 563.865601 C 741.673828 558.625061 744.263916 554.323364 749.954468 552.569824 C 758.371033 549.976196 766.790466 547.386597 775.251709 544.94458 C 781.408691 543.167542 785.595703 545.305115 787.567383 550.938049 C 789.296204 555.877258 787.334412 559.957825 781.86792 562.553223 C 775.237427 565.701355 768.308105 568.050842 760.858887 570.154907 z" stroke-linecap="round" />
</g>
		<g transform="matrix(1 0 0 1 246.07 -63.21)"  >
<path style="stroke: none; stroke-width: 1; stroke-dasharray: none; stroke-linecap: butt; stroke-dashoffset: 0; stroke-linejoin: miter; stroke-miterlimit: 4; fill: rgb(0,0,0); fill-rule: nonzero; opacity: 1;" vector-effect="non-scaling-stroke"  transform=" translate(-765.58, -433.65)" d="M 771.929932 442.15564 C 766.144714 443.894775 760.785278 445.738037 755.297913 447.043884 C 748.582397 448.641998 744.954834 446.174103 743.190979 439.410889 C 741.760376 433.925201 744.443115 429.413605 750.564758 427.913727 C 758.980042 425.851837 767.194153 423.189056 775.400269 420.457062 C 780.97583 418.600769 785.488831 420.685913 787.573181 425.887085 C 789.469055 430.618011 787.816345 434.898285 782.809753 437.425171 C 779.401184 439.145538 775.80896 440.502167 771.929932 442.15564 z" stroke-linecap="round" />
</g>
</g>
</g>
</svg>