<?xml version="1.0" encoding="UTF-8" standalone="no" ?>
<!DOCTYPE svg PUBLIC "-//W3C//DTD SVG 1.1//EN" "http://www.w3.org/Graphics/SVG/1.1/DTD/svg11.dtd">
<svg xmlns="http://www.w3.org/2000/svg" xmlns:xlink="http://www.w3.org/1999/xlink" version="1.1" width="1080" height="1080" viewBox="0 0 1080 1080" xml:space="preserve">
<desc>Created with Fabric.js 5.2.4</desc>
<defs>
</defs>
<g transform="matrix(1 0 0 1 540 540)" id="73b3e884-0f13-44da-8013-467853f7f09f"  >
<rect style="stroke: none; stroke-width: 1; stroke-dasharray: none; stroke-linecap: butt; stroke-dashoffset: 0; stroke-linejoin: miter; stroke-miterlimit: 4; fill: rgb(255,255,255); fill-rule: nonzero; opacity: 1; visibility: hidden;" vector-effect="non-scaling-stroke"  x="-540" y="-540" rx="0" ry="0" width="1080" height="1080" />
</g>
<g transform="matrix(1 0 0 1 540 540)" id="b4228403-55f3-43b9-84e1-918a6b2605ad"  >
</g>
<g transform="matrix(14.62 0 0 14.59 540 540)" id="30a3ec33-9500-4715-8957-836de1dce828"  >
<circle style="stroke: rgb(0,0,0); stroke-width: 0; stroke-dasharray: none; stroke-linecap: butt; stroke-dashoffset: 0; stroke-linejoin: miter; stroke-miterlimit: 4; fill: rgb(255,255,255); fill-rule: nonzero; opacity: 1;" vector-effect="non-scaling-stroke"  cx="0" cy="0" r="35" />
</g>
<g transform="matrix(1 0 0 1 540 540)"  >
<g style="" vector-effect="non-scaling-stroke"   >
		<g transform="matrix(1 0 0 1 0.02 3.2)"  >
<path style="stroke: none; stroke-width: 1; stroke-dasharray: none; stroke-linecap: butt; stroke-dashoffset: 0; stroke-linejoin: miter; stroke-miterlimit: 4; fill: rgb(0,0,0); fill-rule: nonzero; opacity: 1;" vector-effect="non-scaling-stroke"  transform=" translate(-513.37, -505.61)" d="M 385.618958 655.235596 C 383.622406 639.483582 381.593994 624.187195 379.677612 608.876709 C 377.720825 593.243408 375.864227 577.597595 373.982117 561.954956 C 372.19812 547.127625 370.464325 532.294189 368.657928 517.469604 C 367.454193 507.591003 366.018646 497.738129 364.988708 487.842346 C 364.6409 484.500763 362.936371 482.945679 360.183685 481.624664 C 350.171204 476.819641 341.095306 470.743134 334.336273 461.695374 C 329.18512 454.799957 326.649078 447.040985 326.650208 438.436432 C 326.654724 403.94342 326.844543 369.448761 326.551605 334.958221 C 326.438202 321.608246 331.683838 311.176941 341.246674 302.43454 C 353.402985 291.321228 367.934326 284.317169 383.145233 278.692871 C 406.650604 270.001587 431.085083 265.404053 455.93869 262.525574 C 478.146912 259.9534 500.394745 259.323059 522.698059 259.75528 C 529.988647 259.896545 537.269348 260.550201 545.434509 261.020172 C 542.573914 268.926727 539.992615 276.381744 537.149841 283.735626 C 536.220215 286.140259 533.681885 285.345093 531.808838 285.270447 C 515.321228 284.613312 498.812927 284.498352 482.361359 285.472504 C 449.771912 287.402222 417.508423 291.475159 386.764984 303.375366 C 377.562408 306.9375 368.838623 311.437622 361.209564 317.820465 C 359.934082 318.887573 358.661224 319.979553 357.528229 321.191833 C 347.531891 331.888092 347.866089 342.109406 358.714417 351.939819 C 368.795105 361.074646 381.034058 366.351349 393.670013 370.767517 C 414.139587 377.921539 435.283997 382.017822 456.756256 384.780457 C 480.56076 387.843201 504.456818 389.547882 528.40918 388.517578 C 565.341248 386.929016 602.031738 383.313904 636.943176 369.83136 C 647.545593 365.736786 657.63446 360.60553 666.320862 353.086334 C 678.055359 342.928589 678.64679 332.637482 668.097534 321.218719 C 664.452454 317.273193 660.111755 314.185577 655.518005 311.435211 C 643.280334 304.108246 630.100464 299.088104 616.379028 295.378052 C 610.168457 293.698853 610.152954 293.673981 612.121338 287.795654 C 613.706055 283.063019 615.463196 278.384674 616.917725 273.613312 C 617.70105 271.04361 618.947449 269.974121 621.627258 270.818634 C 643.954712 277.854706 665.804443 285.822235 683.832825 301.58017 C 694.466064 310.874268 700.161926 322.474762 700.186584 336.608917 C 700.235168 364.436066 700.146118 392.263733 700.007324 420.090668 C 699.96582 428.413666 699.975708 436.770966 699.237976 445.048035 C 698.237671 456.271484 691.298523 464.164062 683.005127 470.978271 C 678.492798 474.685822 673.774719 478.368652 668.301514 480.327576 C 662.43573 482.427002 660.98645 486.585876 660.337952 491.998932 C 657.812622 513.079163 655.027405 534.128296 652.478699 555.205811 C 650.049316 575.296448 647.978699 595.431824 645.411926 615.504272 C 642.657104 637.047058 639.49823 658.538147 636.538208 680.05481 C 635.905579 684.653137 635.274353 689.255127 634.807312 693.87207 C 633.322205 708.552734 624.538208 718.369263 613.175598 726.449951 C 597.25 737.775574 579.155762 743.637146 560.216309 747.38208 C 537.012878 751.970032 513.622253 752.595154 490.174408 750.261902 C 465.259827 747.782776 440.761566 743.483459 418.60849 730.731812 C 413.829712 727.981079 409.359619 724.811096 405.201141 721.195374 C 395.939392 713.1427 391.236938 702.872253 389.945679 690.759216 C 388.697266 679.047729 387.087372 667.374817 385.618958 655.235596 M 414.553497 689.722656 C 415.406342 692.648926 416.963837 695.188049 418.835541 697.559753 C 426.73407 707.56781 437.841705 712.712036 449.402161 716.534058 C 484.920319 728.27655 521.120361 729.432495 557.666077 722.074463 C 571.127014 719.364319 584.154114 715.220764 595.699158 707.594116 C 604.036194 702.086548 610.84552 695.511475 611.87262 684.37085 C 613.364197 668.192688 615.74231 652.095032 617.804993 635.971069 C 620.372253 615.901855 623.097534 595.852478 625.583252 575.773315 C 628.742493 550.25293 631.706482 524.708374 634.808289 499.180817 C 635.561584 492.980743 634.574646 492.027161 628.519714 493.682129 C 598.02655 502.01651 566.804565 505.298553 535.361023 506.20752 C 510.917084 506.914124 486.450256 506.865997 462.020447 504.512695 C 445.150635 502.887604 428.32431 501.26178 411.768127 497.514038 C 404.882385 495.955322 397.98761 494.43631 390.333618 492.728973 C 398.49057 558.678101 405.716797 623.890808 414.553497 689.722656 M 384.17981 393.517914 C 375.259521 390.243774 366.601654 386.402893 358.384338 381.605011 C 353.577118 378.798187 352.330719 379.468567 352.316803 385.156464 C 352.282135 399.308075 352.889526 413.48465 352.23645 427.604858 C 351.560944 442.210205 357.753601 452.06076 370.387329 458.497284 C 373.351135 460.007202 376.181458 461.814636 379.230804 463.115692 C 411.957489 477.078979 446.616913 481.462158 481.709198 483.715057 C 484.78418 483.912476 486.190216 482.60553 487.093994 479.823914 C 493.61554 459.751862 500.144196 439.680939 506.902985 419.688202 C 508.267212 415.65271 507.192993 414.095612 503.228546 413.845123 C 502.07074 413.771942 500.920593 413.42218 499.76886 413.431732 C 486.606232 413.540741 473.578308 411.99176 460.537537 410.454987 C 434.764862 407.417908 409.355316 402.791687 384.17981 393.517914 M 587.400452 408.326691 C 577.649658 409.181824 568.047729 411.365082 558.212891 411.516266 C 554.710205 411.570099 553.689331 414.233337 552.798462 417.093384 C 547.410217 434.390228 541.81134 451.622894 536.590393 468.969543 C 535.191162 473.618622 532.904175 478.17157 532.996521 483.542023 C 534.699036 483.685974 535.99646 483.912048 537.289124 483.887817 C 564.612915 483.375519 591.607971 480.049591 618.08783 473.343262 C 632.93866 469.582153 647.351746 464.47464 660.300842 455.816711 C 669.477234 449.681244 674.114136 441.977936 673.852722 430.461548 C 673.475464 413.845154 672.729004 397.16626 674.521667 380.553162 C 674.617676 379.663544 674.965149 378.488647 673.194275 377.881714 C 664.726013 384.302917 655.123413 389.187775 645.040405 393.200073 C 626.718811 400.49057 607.601868 404.7323 587.400452 408.326691 z" stroke-linecap="round" />
</g>
		<g transform="matrix(1 0 0 1 -0.32 213.15)"  >
<path style="stroke: none; stroke-width: 1; stroke-dasharray: none; stroke-linecap: butt; stroke-dashoffset: 0; stroke-linejoin: miter; stroke-miterlimit: 4; fill: rgb(0,0,0); fill-rule: nonzero; opacity: 1;" vector-effect="non-scaling-stroke"  transform=" translate(-513.03, -715.56)" d="M 699.355042 683.000122 C 699.356873 690.999939 698.960754 698.525208 699.43866 705.994568 C 700.576172 723.775024 693.337219 738.018921 681.457825 750.404968 C 661.875793 770.822144 637.411499 782.921204 610.836609 791.180786 C 585.486633 799.05957 559.498108 803.070984 532.953003 804.558594 C 490.442841 806.940918 448.979553 802.21051 408.698059 788.366699 C 385.14093 780.270691 363.522186 768.647583 345.781464 750.752014 C 333.047699 737.907166 326.10556 722.803406 326.527527 704.214417 C 327.068237 680.393921 326.639557 656.551697 326.683533 632.718933 C 326.687073 630.802307 326.134521 628.762024 327.31488 626.918396 C 329.064026 626.851074 329.537292 628.349854 330.257874 629.314514 C 334.290375 634.712952 338.901886 639.703308 344.678528 643.001038 C 350.289276 646.204041 351.650635 650.294006 351.491516 656.411133 C 351.071228 672.566528 351.615204 688.746094 351.250916 704.904236 C 351.024841 714.930542 354.705475 723.096375 361.259552 730.180298 C 374.11792 744.078186 390.462524 752.684998 407.603455 759.889587 C 429.049561 768.903687 451.55423 773.854309 474.576355 776.744263 C 495.112762 779.322144 515.726562 780.333191 536.330688 778.558655 C 576.154175 775.129089 614.633728 766.875 648.764343 744.523865 C 653.21344 741.610229 657.382812 738.284973 661.330322 734.674683 C 671.36969 725.492981 676.382141 714.533752 675.80304 700.583801 C 675.139954 684.611511 675.709961 668.590332 675.590515 652.591553 C 675.566101 649.32135 676.226929 647.013123 679.317017 645.199463 C 687.08075 640.642944 693.249634 634.208191 699.354431 625.964539 C 699.354431 645.727783 699.354431 664.113892 699.355042 683.000122 z" stroke-linecap="round" />
</g>
		<g transform="matrix(1 0 0 1 58.25 -215.77)"  >
<path style="stroke: none; stroke-width: 1; stroke-dasharray: none; stroke-linecap: butt; stroke-dashoffset: 0; stroke-linejoin: miter; stroke-miterlimit: 4; fill: rgb(0,0,0); fill-rule: nonzero; opacity: 1;" vector-effect="non-scaling-stroke"  transform=" translate(-571.6, -286.64)" d="M 562.926636 255.072495 C 568.289062 239.271164 573.480347 223.829224 578.748413 208.413528 C 581.591614 200.093414 586.216553 197.974152 594.565247 200.947083 C 600.517456 203.066681 606.483582 205.147614 612.446716 207.236511 C 619.805298 209.814255 621.887329 213.628662 619.373291 221.075043 C 606.663513 258.721008 593.843018 296.32959 581.063843 333.952148 C 577.321777 344.968964 573.572876 355.98349 569.862854 367.011078 C 569.0979 369.284821 568.448486 371.233704 565.346191 371.413483 C 552.411987 372.162842 539.510132 373.47522 526.540771 373.599976 C 525.58197 373.609222 524.620605 373.340668 522.816284 373.078674 C 536.216064 333.642853 549.501709 294.542847 562.926636 255.072495 z" stroke-linecap="round" />
</g>
		<g transform="matrix(1 0 0 1 -165.38 59.55)"  >
<path style="stroke: none; stroke-width: 1; stroke-dasharray: none; stroke-linecap: butt; stroke-dashoffset: 0; stroke-linejoin: miter; stroke-miterlimit: 4; fill: rgb(0,0,0); fill-rule: nonzero; opacity: 1;" vector-effect="non-scaling-stroke"  transform=" translate(-347.98, -561.96)" d="M 351.349548 553.000122 C 351.349518 563.3255 351.493958 573.153748 351.299438 582.975281 C 351.16391 589.815369 353.369965 595.768433 358.857147 599.524597 C 364.24646 603.213623 366.164001 607.944763 366.726685 614.008606 C 367.322906 620.434021 368.569214 626.797119 369.271729 633.21582 C 369.580872 636.040833 368.426727 637.880981 365.103302 636.454224 C 350.054932 629.993774 337.050995 621.168884 329.685089 605.822266 C 327.714172 601.716003 326.62915 597.442322 326.637726 592.838074 C 326.68808 565.693481 326.651245 538.548767 326.676544 511.404053 C 326.684265 503.104248 329.609161 495.82135 334.594391 489.275909 C 336.597107 486.646484 338.627106 486.054077 341.156219 488.653961 C 343.360596 490.919983 345.634796 493.137939 348.049652 495.173706 C 350.551483 497.282806 351.429382 499.773224 351.404358 503.040405 C 351.278107 519.526123 351.348114 536.013367 351.349548 553.000122 z" stroke-linecap="round" />
</g>
		<g transform="matrix(1 0 0 1 165.11 59.76)"  >
<path style="stroke: none; stroke-width: 1; stroke-dasharray: none; stroke-linecap: butt; stroke-dashoffset: 0; stroke-linejoin: miter; stroke-miterlimit: 4; fill: rgb(0,0,0); fill-rule: nonzero; opacity: 1;" vector-effect="non-scaling-stroke"  transform=" translate(-678.47, -562.17)" d="M 679.248352 495.411072 C 681.497864 493.142303 683.608398 491.232635 685.448608 489.09079 C 687.881836 486.258636 689.905701 486.82962 691.867065 489.498413 C 696.187744 495.377533 699.294128 501.793976 699.315979 509.223267 C 699.400696 538.039124 699.348328 566.855286 699.36322 595.671326 C 699.366699 602.356689 696.282227 607.874512 692.586914 613.050659 C 684.598145 624.240906 673.592285 631.526184 661.062927 636.715942 C 660.34668 637.012634 659.493225 636.978088 658.466797 637.133606 C 657.075623 633.729919 657.656738 630.42804 657.91394 627.193787 C 658.413696 620.909119 659.213135 614.644897 659.570801 608.354126 C 659.718079 605.764404 660.419739 603.971619 662.707092 602.63501 C 672.312317 597.022522 675.879456 588.480835 675.742432 577.523254 C 675.438354 553.208191 675.694214 528.886536 675.586792 504.568176 C 675.571106 501.02417 676.136475 497.980743 679.248352 495.411072 z" stroke-linecap="round" />
</g>
		<g transform="matrix(1 0 0 1 -23.99 56.31)"  >
<path style="stroke: none; stroke-width: 1; stroke-dasharray: none; stroke-linecap: butt; stroke-dashoffset: 0; stroke-linejoin: miter; stroke-miterlimit: 4; fill: rgb(0,0,0); fill-rule: nonzero; opacity: 1;" vector-effect="non-scaling-stroke"  transform=" translate(-489.37, -558.72)" d="M 463.367371 567.216736 C 458.292542 550.550964 468.815002 536.38623 480.239868 532.531494 C 493.206726 528.156433 508.623413 534.385986 514.082214 546.94812 C 520.261597 561.168823 515.063416 576.884338 502.076477 583.244507 C 486.558868 590.844055 469.304779 583.841797 463.367371 567.216736 z" stroke-linecap="round" />
</g>
		<g transform="matrix(1 0 0 1 52.05 96.83)"  >
<path style="stroke: none; stroke-width: 1; stroke-dasharray: none; stroke-linecap: butt; stroke-dashoffset: 0; stroke-linejoin: miter; stroke-miterlimit: 4; fill: rgb(0,0,0); fill-rule: nonzero; opacity: 1;" vector-effect="non-scaling-stroke"  transform=" translate(-565.4, -599.24)" d="M 539.584961 592.961426 C 542.370361 578.969971 555.610718 571.101624 567.161987 572.215027 C 583.610535 573.800659 591.628784 585.589111 592.066772 599.596924 C 592.489746 613.120056 581.716736 624.573242 567.850342 626.21228 C 555.385376 627.68573 542.428894 617.963623 539.63324 605.146484 C 538.773071 601.202759 538.128845 597.315857 539.584961 592.961426 z" stroke-linecap="round" />
</g>
		<g transform="matrix(1 0 0 1 -52.1 134.67)"  >
<path style="stroke: none; stroke-width: 1; stroke-dasharray: none; stroke-linecap: butt; stroke-dashoffset: 0; stroke-linejoin: miter; stroke-miterlimit: 4; fill: rgb(0,0,0); fill-rule: nonzero; opacity: 1;" vector-effect="non-scaling-stroke"  transform=" translate(-461.26, -637.08)" d="M 484.549774 650.258057 C 477.512268 662.034668 465.460999 666.592041 453.220703 662.602173 C 440.236755 658.36969 434.111511 646.381958 434.936188 635.355225 C 435.980042 621.397217 445.767242 611.674072 458.971405 610.280151 C 476.566193 608.422791 491.233826 626.024658 486.875122 643.833496 C 486.366272 645.912476 485.455536 647.893127 484.549774 650.258057 z" stroke-linecap="round" />
</g>
		<g transform="matrix(1 0 0 1 23.93 164.09)"  >
<path style="stroke: none; stroke-width: 1; stroke-dasharray: none; stroke-linecap: butt; stroke-dashoffset: 0; stroke-linejoin: miter; stroke-miterlimit: 4; fill: rgb(0,0,0); fill-rule: nonzero; opacity: 1;" vector-effect="non-scaling-stroke"  transform=" translate(-537.28, -666.5)" d="M 554.098877 687.16748 C 543.910461 694.960083 531.955933 695.387512 522.316833 688.524963 C 512.429993 681.48584 508.503967 668.836853 512.563904 657.102539 C 516.364807 646.116638 526.890625 639.144897 538.894287 639.66272 C 548.77533 640.088989 558.524902 647.173645 561.887756 656.987427 C 565.351318 667.094971 563.879211 679.164856 554.098877 687.16748 z" stroke-linecap="round" />
</g>
</g>
</g>
</svg>