<?xml version="1.0" encoding="UTF-8" standalone="no" ?>
<!DOCTYPE svg PUBLIC "-//W3C//DTD SVG 1.1//EN" "http://www.w3.org/Graphics/SVG/1.1/DTD/svg11.dtd">
<svg xmlns="http://www.w3.org/2000/svg" xmlns:xlink="http://www.w3.org/1999/xlink" version="1.1" width="1080" height="1080" viewBox="0 0 1080 1080" xml:space="preserve">
<desc>Created with Fabric.js 5.2.4</desc>
<defs>
</defs>
<g transform="matrix(1 0 0 1 540 540)" id="16aef3e1-798c-4273-9697-cdfe7c9cd96e"  >
<rect style="stroke: none; stroke-width: 1; stroke-dasharray: none; stroke-linecap: butt; stroke-dashoffset: 0; stroke-linejoin: miter; stroke-miterlimit: 4; fill: rgb(255,255,255); fill-rule: nonzero; opacity: 1; visibility: hidden;" vector-effect="non-scaling-stroke"  x="-540" y="-540" rx="0" ry="0" width="1080" height="1080" />
</g>
<g transform="matrix(1 0 0 1 540 540)" id="d20d709b-459c-4467-b962-fb794c0cde70"  >
</g>
<g transform="matrix(15.16 0 0 15.16 540 540)" id="d0e58974-c9b3-4d30-a2ad-494f91a80cf9"  >
<circle style="stroke: rgb(0,0,0); stroke-width: 0; stroke-dasharray: none; stroke-linecap: butt; stroke-dashoffset: 0; stroke-linejoin: miter; stroke-miterlimit: 4; fill: rgb(255,255,255); fill-rule: nonzero; opacity: 1;" vector-effect="non-scaling-stroke"  cx="0" cy="0" r="35" />
</g>
<g transform="matrix(1 0 0 1 540.26 663.56)"  >
<path style="stroke: none; stroke-width: 1; stroke-dasharray: none; stroke-linecap: butt; stroke-dashoffset: 0; stroke-linejoin: miter; stroke-miterlimit: 4; fill: rgb(8,8,8); fill-rule: nonzero; opacity: 1;" vector-effect="non-scaling-stroke"  transform=" translate(-513.26, -636.56)" d="M 347.948853 742.257874 C 349.110535 752.222046 350.185669 761.744446 351.356293 771.255066 C 352.869171 783.546265 354.457733 795.828125 356.014984 808.113953 C 357.449097 819.428101 358.862091 830.744995 360.334869 842.054077 C 360.739227 845.158936 361.628784 848.226196 361.772369 851.334839 C 362.286346 862.464844 371.349396 869.772522 383.944366 869.730408 C 425.604767 869.591248 467.265839 869.63385 508.926636 869.629089 C 553.419006 869.624084 597.911377 869.656494 642.403748 869.647034 C 656.50531 869.643982 664.008545 861.926575 665.098694 847.690186 C 665.993835 836.000977 667.872253 824.386536 669.332214 812.74115 C 670.872742 800.453674 672.433411 788.168762 673.986145 775.882812 C 675.43512 764.417725 676.870972 752.950867 678.338928 741.488159 C 679.871338 729.522461 681.457458 717.563538 682.979065 705.596497 C 684.479797 693.793274 685.907593 681.980774 687.40741 670.177429 C 688.907288 658.372986 690.447449 646.573669 691.986877 634.774292 C 693.566711 622.665649 695.205811 610.564575 696.747375 598.45105 C 698.20813 586.972046 699.544128 575.477234 700.993835 563.996765 C 702.524414 551.875977 704.146301 539.766785 705.688171 527.6474 C 707.147766 516.174011 708.53833 504.691772 709.990723 493.217407 C 711.526245 481.086365 713.110291 468.961517 714.652039 456.831238 C 716.110474 445.356049 717.52356 433.875031 718.989746 422.400848 C 720.538452 410.280945 722.162292 398.170624 723.682922 386.047302 C 724.526062 379.324677 725.099487 372.565308 726.097168 365.867584 C 726.292053 364.559357 727.865173 362.432129 728.8302 362.416779 C 742.957642 362.192413 757.089661 362.262543 771.745178 362.262543 C 769.520508 378.753082 767.274475 394.876648 765.188782 411.020905 C 763.369568 425.101837 761.798218 439.214691 759.993958 453.297638 C 758.169556 467.538025 756.140869 481.752167 754.300415 495.99057 C 752.796204 507.626953 751.477356 519.287231 750.002869 530.927612 C 748.529602 542.558228 746.954163 554.175964 745.443481 565.801941 C 743.954285 577.262756 742.505798 588.728821 741.010437 600.188843 C 739.472595 611.973816 737.879944 623.751587 736.348206 635.537354 C 734.879333 646.840088 733.481934 658.152039 732.008728 669.454163 C 730.493896 681.075562 728.89856 692.686584 727.387878 704.308533 C 725.897644 715.773132 724.470886 727.246033 723.013367 738.714905 C 721.555786 750.18335 720.126221 761.655579 718.626221 773.118469 C 717.126648 784.577454 715.53186 796.023804 714.021667 807.481445 C 712.381653 819.923584 710.777832 832.370667 709.182861 844.818726 C 707.776978 855.791565 706.575195 866.793518 704.979797 877.738342 C 702.290283 896.190063 685.00769 911.007812 666.402893 911.009644 C 564.23822 911.019836 462.073517 911.018555 359.908813 911.011414 C 341.20285 911.010132 323.64093 896.003479 321.02359 877.375183 C 318.450806 859.064026 316.367554 840.684692 313.948914 822.351196 C 311.40152 803.041748 308.611542 783.764099 306.113678 764.448425 C 303.932129 747.578857 302.110474 730.662781 299.943665 713.791199 C 297.776703 696.918457 295.285614 680.087341 293.108551 663.21582 C 290.952087 646.504028 289.097015 629.753296 286.949982 613.040222 C 284.782715 596.170288 282.340515 579.335632 280.165894 562.466614 C 278.329041 548.21759 276.788696 533.930359 274.958984 519.680359 C 273.150757 505.597565 271.086609 491.547821 269.24292 477.469391 C 267.74115 466.001953 266.427246 454.510071 264.978729 443.035522 C 263.468933 431.075806 261.871124 419.127228 260.36087 407.167572 C 258.87027 395.363525 257.443115 383.551544 255.983566 371.743591 C 255.603867 368.671814 255.207047 365.602173 254.765549 362.116913 C 269.034882 362.116913 282.835205 362.054993 296.632355 362.235626 C 297.724335 362.249939 299.601288 363.832825 299.750183 364.880493 C 301.330048 375.995605 302.606018 387.153442 304.020599 398.292542 C 305.580414 410.575592 307.22821 422.847504 308.781036 435.131439 C 310.231079 446.602325 311.562805 458.088257 313.026276 469.557404 C 314.887421 484.143005 316.856506 498.714844 318.726746 513.299316 C 320.197357 524.767395 321.54538 536.251343 323.027039 547.717957 C 324.570984 559.666565 326.260834 571.596375 327.79248 583.546509 C 329.263 595.019531 330.56311 606.514465 332.028992 617.988098 C 333.556335 629.943054 335.27063 641.874329 336.759033 653.833984 C 338.269257 665.969177 339.536743 678.134521 341.033325 690.271545 C 342.508698 702.236694 344.12265 714.184937 345.706665 726.136536 C 346.399811 731.366577 347.169708 736.586365 347.948853 742.257874 z" stroke-linecap="round" />
</g>
<g transform="matrix(1 0 0 1 540.03 343.04)"  >
<path style="stroke: none; stroke-width: 1; stroke-dasharray: none; stroke-linecap: butt; stroke-dashoffset: 0; stroke-linejoin: miter; stroke-miterlimit: 4; fill: rgb(8,8,8); fill-rule: nonzero; opacity: 1;" vector-effect="non-scaling-stroke"  transform=" translate(-513.03, -316.04)" d="M 601 285.985443 C 668.158508 285.986267 734.817078 285.988098 801.475586 285.986725 C 811.167053 285.986511 814.737793 289.579681 815.038208 299.488403 C 815.39624 311.298767 815.972839 323.104095 816.194275 334.916473 C 816.358337 343.666901 813.806824 346.009918 804.933411 346.010162 C 652.450928 346.014465 499.968475 346.014313 347.485992 346.014801 C 305.49118 346.014923 263.496094 345.934906 221.501892 346.092468 C 214.642807 346.118164 209.363281 343.226135 209.890884 334.450073 C 210.599915 322.65625 210.627731 310.822052 210.988998 299.00647 C 211.27182 289.756989 215.222961 285.988464 224.54538 285.988342 C 349.863586 285.986725 475.181793 285.986206 601 285.985443 z" stroke-linecap="round" />
</g>
<g transform="matrix(1 0 0 1 540.08 201.46)"  >
<path style="stroke: none; stroke-width: 1; stroke-dasharray: none; stroke-linecap: butt; stroke-dashoffset: 0; stroke-linejoin: miter; stroke-miterlimit: 4; fill: rgb(8,8,8); fill-rule: nonzero; opacity: 1;" vector-effect="non-scaling-stroke"  transform=" translate(-513.08, -174.46)" d="M 499.996277 223.986145 C 505.485107 223.98616 510.474945 223.98616 515.842346 223.98616 C 519.562378 210.915314 523.28363 197.905243 526.966553 184.884308 C 531.995605 167.10405 536.982605 149.311874 542.014771 131.532501 C 543.773804 125.317337 547.710083 121.541771 554.121948 119.918663 C 607.098633 106.507881 660.051147 93.001328 712.98999 79.441734 C 717.328918 78.330391 719.136414 80.429611 720.061096 84.036674 C 722.621948 94.025703 725.167786 104.019676 727.577698 114.045784 C 728.611206 118.34565 725.557678 120.054192 722.232605 120.925751 C 712.745605 123.412415 703.193848 125.650993 693.672241 128.006195 C 658.727722 136.649857 623.811218 145.408966 588.820679 153.861694 C 581.553955 155.617096 577.9646 160.430649 576.098145 166.817078 C 570.5979 185.637314 565.400391 204.546036 559.924988 223.986053 C 561.921936 223.986053 563.6745 223.986053 565.427124 223.986084 C 618.755493 223.986755 672.083923 223.98761 725.412292 223.98793 C 735.181885 223.987991 740.156128 227.640289 743.063599 237.143219 C 746.359436 247.915161 749.558594 258.716705 752.880676 269.774628 C 592.973083 269.774628 433.246033 269.774628 273.283905 269.774628 C 276.946106 257.972137 280.405487 246.090851 284.350525 234.373093 C 286.874146 226.877396 292.861938 223.978607 300.516083 223.980103 C 366.84317 223.993088 433.170258 223.986725 499.996277 223.986145 z" stroke-linecap="round" />
</g>
<g transform="matrix(1 0 0 1 540 568.28)"  >
<path style="stroke: none; stroke-width: 1; stroke-dasharray: none; stroke-linecap: butt; stroke-dashoffset: 0; stroke-linejoin: miter; stroke-miterlimit: 4; fill: rgb(8,8,8); fill-rule: nonzero; opacity: 1;" vector-effect="non-scaling-stroke"  transform=" translate(-513, -541.28)" d="M 372.850769 571.241943 C 363.391174 565.210205 358.479675 557.520142 358.839172 546.017456 C 359.450134 526.467896 359.007263 506.885406 359.007263 486.75116 C 375.141296 502.294922 395.069885 508.4646 415.405579 512.721802 C 433.729034 516.557678 452.412842 519.15564 471.070007 520.780579 C 490.417236 522.465576 509.951447 523.318726 529.354004 522.770508 C 566.173523 521.730286 602.716553 517.873413 637.627136 504.918518 C 648.289856 500.961731 658.58551 496.161499 666.720093 486.57782 C 666.842651 488.524689 667.001709 489.885223 667.00293 491.24585 C 667.019958 510.734833 666.682068 530.232117 667.168274 549.709045 C 667.385681 558.417725 663.554382 564.187622 657.078064 568.891418 C 644.478943 578.042114 629.877747 582.773621 614.980835 585.74231 C 596.76947 589.371399 578.305603 592.324707 559.809998 593.782349 C 537.792053 595.517639 515.592163 596.429688 493.529175 595.766663 C 459.081146 594.731384 424.741241 591.565308 391.862152 579.995789 C 385.420868 577.729126 379.378357 574.329407 372.850769 571.241943 z" stroke-linecap="round" />
</g>
<g transform="matrix(1 0 0 1 540.17 670.26)"  >
<path style="stroke: none; stroke-width: 1; stroke-dasharray: none; stroke-linecap: butt; stroke-dashoffset: 0; stroke-linejoin: miter; stroke-miterlimit: 4; fill: rgb(8,8,8); fill-rule: nonzero; opacity: 1;" vector-effect="non-scaling-stroke"  transform=" translate(-513.17, -643.26)" d="M 600.896179 616.977661 C 614.448303 613.02655 627.663757 609.364136 640.662781 605.049377 C 650.360107 601.830566 659.109131 596.680115 667.011597 588.605103 C 667.011597 591.536438 667.011536 593.763184 667.011597 595.98999 C 667.012329 613.31665 666.564575 630.65918 667.177856 647.964172 C 667.560486 658.762085 662.854614 665.947083 654.435364 671.527954 C 640.543457 680.73645 624.832825 685.338074 608.840027 688.934204 C 588.030151 693.613708 566.922241 696.435364 545.580383 697.025757 C 527.44696 697.527405 509.268616 698.554626 491.173065 697.813477 C 457.069611 696.416626 423.024841 693.426758 390.849792 680.81543 C 382.135376 677.399719 374.198853 671.796265 366.283691 666.61853 C 361.305359 663.361877 359.279816 657.787476 359.23465 651.968506 C 359.070801 630.874756 359.170044 609.77887 359.170044 588.436523 C 379.866943 607.191833 405.553436 612.948975 431.49588 617.965698 C 461.903259 623.846008 492.674652 625.566528 523.557068 624.90094 C 549.378784 624.344543 575.090698 622.1521 600.896179 616.977661 z" stroke-linecap="round" />
</g>
<g transform="matrix(1 0 0 1 540.14 771.91)"  >
<path style="stroke: none; stroke-width: 1; stroke-dasharray: none; stroke-linecap: butt; stroke-dashoffset: 0; stroke-linejoin: miter; stroke-miterlimit: 4; fill: rgb(8,8,8); fill-rule: nonzero; opacity: 1;" vector-effect="non-scaling-stroke"  transform=" translate(-513.14, -744.91)" d="M 359.268127 755.405884 C 359.210236 733.403442 359.210236 711.843201 359.210236 689.91864 C 374.869995 704.63501 394.139832 710.837524 413.82016 715.914612 C 433.464172 720.9823 453.441437 724.247253 473.76535 725.035889 C 490.540527 725.686768 507.3349 727.180786 524.087402 726.806519 C 561.106689 725.979309 597.837585 722.394287 633.09668 709.948914 C 645.456421 705.586304 657.33197 700.195251 666.996521 689.598572 C 666.996521 712.41095 667.226807 734.336365 666.873901 756.25238 C 666.747375 764.110718 660.839233 768.904602 654.859985 772.911621 C 640.346313 782.638062 623.806458 787.297852 607.010803 790.957031 C 571.195251 798.76001 534.823914 801.327637 498.320465 799.800659 C 462.39679 798.297913 426.459015 795.372803 392.29776 782.82959 C 383.352325 779.545044 375.070129 774.227356 366.882538 769.194031 C 362.269379 766.358032 359.861603 761.425659 359.268127 755.405884 z" stroke-linecap="round" />
</g>
<g transform="matrix(1 0 0 1 540.33 481.02)"  >
<path style="stroke: none; stroke-width: 1; stroke-dasharray: none; stroke-linecap: butt; stroke-dashoffset: 0; stroke-linejoin: miter; stroke-miterlimit: 4; fill: rgb(8,8,8); fill-rule: nonzero; opacity: 1;" vector-effect="non-scaling-stroke"  transform=" translate(-513.33, -454.02)" d="M 426.889771 419.967407 C 435.462189 418.633698 443.555847 416.603668 451.739105 416.133728 C 475.786774 414.752686 499.881409 413.004822 523.935852 413.283539 C 545.092102 413.528687 566.265625 415.871582 587.345276 418.102997 C 607.58783 420.245789 627.451538 424.58905 646.144348 433.007538 C 650.894653 435.146851 655.527832 437.918396 659.564636 441.199402 C 671.521179 450.91745 668.618774 460.626984 657.415283 468.548553 C 645.70575 476.827972 632.078796 480.694275 618.397766 483.895782 C 596.861755 488.935364 575.003296 492.137543 552.863098 493.056396 C 537.073181 493.7117 521.260437 495.094879 505.491791 494.721008 C 471.585602 493.917175 437.780731 491.344086 404.749634 482.936523 C 391.435608 479.547699 378.326111 475.392151 367.026825 467.031281 C 357.045532 459.64563 356.85788 449.33902 366.418518 441.538513 C 378.2323 431.899597 392.513458 428.045502 406.713745 424.076538 C 413.170074 422.272034 419.865173 421.321716 426.889771 419.967407 z" stroke-linecap="round" />
</g>
</svg>